<svg xmlns="http://www.w3.org/2000/svg" width="54.751" height="54.751" viewBox="0 0 54.751 54.751">
  <g id="Group_2310" data-name="Group 2310" transform="translate(-64 -18.249)">
    <g id="Group_2309" data-name="Group 2309" transform="translate(2823 620.249)">
      <path id="Path_2068" data-name="Path 2068" d="M27.376,0A27.376,27.376,0,1,1,0,27.376,27.376,27.376,0,0,1,27.376,0Z" transform="translate(-2759 -602)" fill="#b2b2b2"/>
      <g id="user-6767" transform="translate(-2744.439 -590.928)">
        <g id="Group_2308" data-name="Group 2308" transform="translate(0 0)">
          <path id="Path_2066" data-name="Path 2066" d="M40.594,148.86H14.965v-.646a12.815,12.815,0,1,1,25.629,0Zm-24.319-1.293H39.283a11.522,11.522,0,0,0-23.008,0Z" transform="translate(-14.965 -119.778)"/>
          <path id="Path_2067" data-name="Path 2067" d="M71.565,14.209a7.1,7.1,0,1,1,7.1-7.1A7.112,7.112,0,0,1,71.565,14.209Zm0-12.916A5.812,5.812,0,1,0,77.376,7.1,5.818,5.818,0,0,0,71.565,1.293Z" transform="translate(-58.75)"/>
        </g>
      </g>
    </g>
  </g>
</svg>
